<svg xmlns="http://www.w3.org/2000/svg" xml:space="preserve" width="512mm" height="512mm" version="1.1" style="shape-rendering:geometricPrecision; text-rendering:geometricPrecision; image-rendering:optimizeQuality; fill-rule:evenodd; clip-rule:evenodd"
viewBox="0 0 51200 51200"
 xmlns:xlink="http://www.w3.org/1999/xlink"
 xmlns:xodm="http://www.corel.com/coreldraw/odm/2003">
 <defs>
  <style type="text/css">
   <![CDATA[
    .fil0 {fill:#F0272D}
    .fil1 {fill:#FFFAF2;fill-rule:nonzero}
   ]]>
  </style>
 </defs>
 <g id="Layer_x0020_1">
  <metadata id="CorelCorpID_0Corel-Layer"/>
  <g id="Vector">
   <path class="fil0" d="M8810.17 858.14c12.36,-7.66 23.87,-14.92 35.81,-22.58 55.41,-34.27 109.97,-68.53 165.38,-102.8l6.4 -4.03c1480.38,-895 3240.38,-1413.85 5129.54,-1413.85 2624.45,0 4999.97,1001.02 6721.19,2620.47 546.03,515.23 1025.99,1092.54 1426.24,1718.63l8635.92 0c5620.17,0 10713.48,2150.4 14400.59,5622.32 3687.95,3471.93 5971.82,8266.99 5971.82,13558.33l0 11207.15c0,3736.8 -1612.94,7123.25 -4216.51,9574 -630,593.03 -1317.55,1131.24 -2054.54,1606.55l-4537.91 2926.87c-2310.73,1490.84 -5106.1,2363.26 -8114.61,2363.26l0 -24.19 -17250.1 2.42 -37.93 24.19c-4134.67,0 -7882.3,-1581.56 -10594.56,-4136.72 -2712.26,-2553.55 -4393.83,-6081.91 -4393.83,-9973.92l0 -7034.56c0,-3500.95 1359.75,-6706.39 3606.96,-9174.47 -2138.94,-2167.33 -3606.96,-5126.05 -3606.96,-9004.75 0,-2471.31 1064.36,-4707.58 2784.29,-6328.24 415.6,-391.06 869.56,-746.23 1355.49,-1060.28l4538.33 -2926.47c9.38,-6.45 19.19,-11.29 28.99,-17.33z"/>
   <path class="fil1" d="M19628.94 41292.02c-4575.85,0 -8298.33,-3504.98 -8298.33,-7813.03l0 -7034.56c0,-4308.06 3723.34,-7812.64 8298.33,-7812.64l10769.75 0c2757.86,0 5000.39,2111.7 5000.39,4707.58l0 1460.61c0,4308.06 -3722.91,7812.64 -8298.75,7812.64l-3734.84 0c-1557.11,0 -2816.27,-1186.47 -2816.27,-2650.71 0,-1466.26 1260.01,-2651.92 2816.27,-2651.92l3734.84 0c1469.72,0 2666.22,-1125.59 2666.22,-2510.01l0 -865.56 -10136.76 0c-1469.73,0 -2665.37,1125.59 -2665.37,2510.01l0 7034.56c0,1383.61 1194.79,2510.01 2665.37,2510.01l17291.44 0c1139.38,0 2063.5,-872.42 2063.5,-1942.78l0 -11207.96c0,-4180.26 -3612.51,-7579.22 -8050.67,-7579.22l-12177.24 0c-2985.49,-2.01 -7425.35,-1863.35 -7425.35,-6993.03 0,-1466.25 1260,-2651.92 2816.69,-2651.92 1557.1,0 2816.26,1186.47 2816.26,2651.92 0,446.29 0,1624.29 1820.53,1687.18l12146.55 0c7546.42,0 13683.2,5778.75 13683.2,12883.05l0 11207.56c0,3996.42 -3454.36,7246.61 -7696.88,7246.61l-17288.88 1.61z"/>
  </g>
 </g>
</svg>
