<svg width="24" height="22" viewBox="0 0 24 22" fill="none" xmlns="http://www.w3.org/2000/svg">
<path d="M11.4946 1.71393C11.7012 1.29539 12.298 1.29539 12.5046 1.71393L15.1786 7.13206C15.2606 7.29826 15.4192 7.41346 15.6026 7.44012L21.5818 8.30895C22.0437 8.37607 22.2282 8.94369 21.8939 9.26948L17.5673 13.4869C17.4346 13.6163 17.374 13.8027 17.4053 13.9854L18.4267 19.9404C18.5056 20.4005 18.0228 20.7513 17.6096 20.5341L12.2616 17.7225C12.0976 17.6362 11.9016 17.6362 11.7375 17.7225L6.38953 20.5341C5.9764 20.7513 5.49355 20.4005 5.57245 19.9404L6.59383 13.9854C6.62516 13.8027 6.5646 13.6163 6.43187 13.4869L2.10525 9.26948C1.77102 8.94369 1.95545 8.37607 2.41734 8.30895L8.3966 7.44012C8.58001 7.41346 8.73857 7.29826 8.8206 7.13206L11.4946 1.71393Z" stroke="#ADADAD" stroke-width="2.5" stroke-linejoin="round"/>
</svg>
